<svg
      xmlns="http://www.w3.org/2000/svg"
      width="512"
      height="512"
      enableBackground="new 0 0 512 512"
      viewBox="0 0 32 32"
    >
      <path
        fill="#ef2f2f"
        d="M24.5 5h-3.516a3.027 3.027 0 00-3-3H14a3 3 0 00-3 3H7.5c-3.067 0-3.208 4.5-.454 4.955l.855 17.2A3 3 0 0010.9 30h10.2a3 3 0 003-2.845l.855-17.2C27.714 9.5 27.561 5 24.5 5zM14 4h3.986a1.014 1.014 0 011 1H13a1 1 0 011-1zM7.5 7h17a.5.5 0 010 1h-17a.5.5 0 010-1zm14.6 20.053a1 1 0 01-1 .947H10.9a1 1 0 01-1-.944L9.051 10h13.9zM19 25V13a1 1 0 012 0v12a1 1 0 01-2 0zm-4 0V13a1 1 0 012 0v12a1 1 0 01-2 0zm-4 0V13a1 1 0 012 0v12a1 1 0 01-2 0z"
        data-name="38 Delete"
        data-original="#000000"
      ></path>
    </svg>